<?xml version="1.0" encoding="UTF-8"?>
<svg enable-background="new 0 0 38.1 38.1" version="1.1" viewBox="0 0 38.1 38.1" xmlns="http://www.w3.org/2000/svg">
 <style type="text/css">.st0{fill:#0190B0;} .st1{fill:#00A5CB;} .st2{clip-path:url(#SVGID_2_);} .st3{fill:#DCDBDB;} .st4{fill:#FFFFFF;} .st5{fill:#F2F2F2;} .st6{clip-path:url(#SVGID_4_);} .st7{fill:none;} .st8{fill:none;stroke:#FFFFFF;stroke-miterlimit:10;} .st9{clip-path:url(#SVGID_6_);} .st10{clip-path:url(#SVGID_8_);} .st11{clip-path:url(#SVGID_10_);}</style>
 <circle class="st0" cx="19.1" cy="19.1" r="18.8"/>
 <path class="st1" d="M19.1,38C8.7,38,0.3,29.5,0.3,19.1S8.7,0.3,19.1,0.3"/>
 <polygon class="st4" points="7.7 23.9 21.1 11.1 24.9 15 11.5 27.8"/>
 <path class="st4" d="m27.3 12.6c-0.1-0.1-3.8-3.9-3.8-3.9s2.7-2.6 2.9-2.8c0.5-0.4 1.2-0.3 1.7 0.1 0.2 0 1.9 1.8 2.1 2 0.5 0.5 0.4 1.4-0.1 1.9-0.4 0.4-2.5 2.4-2.8 2.7z"/>
 <path class="st4" d="m7.1 24.6s3.8 3.9 3.8 3.9c-0.6 0.1-5 1-5 1s1.2-4.9 1.2-4.9z"/>
 <rect class="st4" transform="matrix(-.7213 .6926 -.6926 -.7213 49.874 3.6121)" x="23.6" y="9.1" width="1.2" height="5.5"/>
</svg>
